<mxfile host="app.diagrams.net" modified="2023-05-08T17:15:38.490Z" agent="Mozilla/5.0 (X11; Linux x86_64) AppleWebKit/537.36 (KHTML, like Gecko) Chrome/112.0.0.0 Safari/537.36 Edg/112.0.1722.39" version="21.2.9" etag="7HyVsxZYGXH5XH6CZb_H" type="github">
  <diagram name="Page-1" id="jgrD1WOWgUpj2Z9E5cM9">
    <mxGraphModel>
      <root>
        <mxCell id="0" />
        <mxCell id="1" parent="0" />
      </root>
    </mxGraphModel>
  </diagram>
</mxfile>
